<svg
	width="283"
	height="194"
	viewBox="0 0 283 194"
	fill="none"
	xmlns="http://www.w3.org/2000/svg"
>
	<path
		d="M257.759 115.265C262.003 145.043 256.224 174.854 226.83 186.462C197.436 198.07 163.625 185.015 151.313 157.302C139 129.589 168.051 113.008 182.242 86.1055C211.061 31.4752 244.58 22.7906 257.759 115.265Z"
		fill="#F2F2F2"
	/>
	<path
		d="M204.841 194C230.277 194 250.896 191.355 250.896 188.093C250.896 184.831 230.277 182.186 204.841 182.186C179.406 182.186 158.787 184.831 158.787 188.093C158.787 191.355 179.406 194 204.841 194Z"
		fill="#3F3D56"
	/>
	<path
		d="M185.941 170.133L174.713 173.06L176.445 178.968L187.673 176.042L185.941 170.133Z"
		fill="#2F2E41"
	/>
	<path
		d="M175.487 180.013C176.568 179.731 176.799 177.298 176.002 174.579C175.204 171.86 173.681 169.884 172.6 170.166C171.518 170.447 171.288 172.88 172.085 175.599C172.882 178.319 174.405 180.295 175.487 180.013Z"
		fill="#2F2E41"
	/>
	<path
		d="M210.153 152.739C210.947 147.218 210.1 142.551 208.261 142.317C206.423 142.082 204.289 146.367 203.495 151.888C202.701 157.41 203.548 162.076 205.387 162.311C207.225 162.546 209.359 158.261 210.153 152.739Z"
		fill="#2F2E41"
	/>
	<path
		d="M204.729 191.378C216.549 191.378 226.131 182.345 226.131 171.201C226.131 160.057 216.549 151.024 204.729 151.024C192.909 151.024 183.327 160.057 183.327 171.201C183.327 182.345 192.909 191.378 204.729 191.378Z"
		fill="#2F2E41"
	/>
	<path
		d="M185.941 166.558L174.713 169.484L176.445 175.392L187.673 172.466L185.941 166.558Z"
		fill="#2F2E41"
	/>
	<path
		d="M175.487 176.437C176.568 176.155 176.799 173.722 176.002 171.003C175.204 168.284 173.681 166.308 172.6 166.59C171.518 166.872 171.288 169.305 172.085 172.024C172.882 174.743 174.405 176.719 175.487 176.437Z"
		fill="#2F2E41"
	/>
	<path
		d="M210.349 166.538C214.388 166.538 217.663 163.451 217.663 159.642C217.663 155.834 214.388 152.746 210.349 152.746C206.309 152.746 203.034 155.834 203.034 159.642C203.034 163.451 206.309 166.538 210.349 166.538Z"
		fill="white"
	/>
	<path
		d="M212.688 158.894C214.034 158.894 215.126 157.865 215.126 156.596C215.126 155.326 214.034 154.297 212.688 154.297C211.341 154.297 210.25 155.326 210.25 156.596C210.25 157.865 211.341 158.894 212.688 158.894Z"
		fill="#3F3D56"
	/>
	<path
		d="M229.444 185.067C237.364 184.693 243.43 177.709 242.992 169.467C242.555 161.226 235.779 154.847 227.86 155.221C219.94 155.595 218.697 161.456 219.134 169.698C219.572 177.94 221.524 185.44 229.444 185.067Z"
		fill="#CCCCCC"
	/>
	<path
		d="M195.982 162.664C194.693 162.762 193.415 162.374 192.43 161.584C191.444 160.794 190.832 159.668 190.728 158.452C190.624 157.237 191.036 156.032 191.873 155.103C192.711 154.175 193.906 153.597 195.195 153.499C197.88 153.294 198.612 155.303 198.829 157.834C199.046 160.365 198.666 162.459 195.982 162.664Z"
		fill="white"
	/>
	<path d="M217.196 129.419H183.026V145.806H217.196V129.419Z" fill="#38E190" />
	<path
		d="M202.12 157.534C202.914 152.012 202.067 147.346 200.228 147.111C198.39 146.876 196.256 151.161 195.462 156.683C194.668 162.204 195.515 166.871 197.354 167.105C199.192 167.34 201.326 163.055 202.12 157.534Z"
		fill="#2F2E41"
	/>
	<path
		d="M153.834 160.343C154.812 160.343 155.605 159.596 155.605 158.674C155.605 157.752 154.812 157.005 153.834 157.005C152.857 157.005 152.064 157.752 152.064 158.674C152.064 159.596 152.857 160.343 153.834 160.343Z"
		fill="#38E190"
	/>
	<path
		d="M210.274 68.5699C222.094 68.5699 231.676 59.5362 231.676 48.3925C231.676 37.2489 222.094 28.2151 210.274 28.2151C198.454 28.2151 188.872 37.2489 188.872 48.3925C188.872 59.5362 198.454 68.5699 210.274 68.5699Z"
		fill="#2F2E41"
	/>
	<path
		d="M222.862 62.3356L216.464 63.4275L218.539 74.2345L224.937 73.1426L222.862 62.3356Z"
		fill="#2F2E41"
	/>
	<path
		d="M210.067 64.5218L203.669 65.6137L205.744 76.4207L212.142 75.3288L210.067 64.5218Z"
		fill="#2F2E41"
	/>
	<path
		d="M209.14 78.6938C211.424 76.8706 212.687 74.7381 211.962 73.9307C211.237 73.1234 208.798 73.947 206.514 75.7702C204.231 77.5935 202.967 79.726 203.692 80.5333C204.418 81.3406 206.857 80.517 209.14 78.6938Z"
		fill="#2F2E41"
	/>
	<path
		d="M221.669 76.5554C223.953 74.7322 225.216 72.5997 224.491 71.7924C223.766 70.985 221.327 71.8086 219.043 73.6319C216.76 75.4551 215.496 77.5876 216.222 78.3949C216.947 79.2022 219.386 78.3787 221.669 76.5554Z"
		fill="#2F2E41"
	/>
	<path
		d="M208.775 50.3531C212.815 50.3531 216.09 47.2656 216.09 43.457C216.09 39.6484 212.815 36.5609 208.775 36.5609C204.736 36.5609 201.461 39.6484 201.461 43.457C201.461 47.2656 204.736 50.3531 208.775 50.3531Z"
		fill="white"
	/>
	<path
		d="M205.769 43.2838C207.116 43.2838 208.207 42.2547 208.207 40.9852C208.207 39.7156 207.116 38.6865 205.769 38.6865C204.422 38.6865 203.331 39.7156 203.331 40.9852C203.331 42.2547 204.422 43.2838 205.769 43.2838Z"
		fill="#3F3D56"
	/>
	<path
		d="M227.157 26.4417C227.479 18.9717 220.65 12.6446 211.904 12.3097C203.159 11.9748 195.808 17.7589 195.486 25.2288C195.165 32.6988 201.244 34.396 209.989 34.731C218.735 35.0659 226.835 33.9116 227.157 26.4417Z"
		fill="#38E190"
	/>
	<path
		d="M200.942 46.9706C201.357 45.2656 197.023 42.8743 191.262 41.6295C185.502 40.3846 180.496 40.7576 180.081 42.4625C179.667 44.1675 184.001 46.5588 189.761 47.8036C195.522 49.0485 200.528 48.6755 200.942 46.9706Z"
		fill="#2F2E41"
	/>
	<path
		d="M242.953 53.5572C243.368 51.8523 239.034 49.461 233.274 48.2161C227.513 46.9712 222.507 47.3442 222.093 49.0492C221.678 50.7541 226.012 53.1454 231.772 54.3903C237.533 55.6352 242.539 55.2622 242.953 53.5572Z"
		fill="#2F2E41"
	/>
	<path
		d="M216.152 56.3442C216.266 56.9382 216.255 57.5477 216.119 58.1377C215.983 58.7277 215.725 59.2867 215.36 59.7829C214.996 60.279 214.531 60.7025 213.992 61.0292C213.454 61.3559 212.852 61.5794 212.222 61.687C211.592 61.7945 210.945 61.784 210.32 61.656C209.694 61.528 209.101 61.2851 208.575 60.941C208.048 60.597 207.599 60.1586 207.253 59.6509C206.906 59.1432 206.669 58.5761 206.555 57.9821C206.075 55.4836 208.124 54.5995 210.774 54.1472C213.424 53.6949 215.672 53.8457 216.152 56.3442Z"
		fill="white"
	/>
	<path
		d="M158.032 25.0832L157.701 25.4881L182.354 43.3668L182.684 42.9619L158.032 25.0832Z"
		fill="#3F3D56"
	/>
	<path
		d="M146.217 34.7357C156.391 34.7357 164.639 26.9599 164.639 17.3679C164.639 7.77586 156.391 0 146.217 0C136.043 0 127.795 7.77586 127.795 17.3679C127.795 26.9599 136.043 34.7357 146.217 34.7357Z"
		fill="#38E190"
	/>
	<path
		d="M159.565 104.81C158.721 104.81 157.896 104.574 157.194 104.132C156.492 103.69 155.945 103.061 155.622 102.326C155.299 101.591 155.214 100.781 155.379 100.001C155.544 99.2202 155.95 98.5031 156.547 97.9403C157.144 97.3776 157.904 96.9943 158.732 96.839C159.56 96.6837 160.419 96.7634 161.199 97.068C161.979 97.3725 162.645 97.8883 163.114 98.5501C163.583 99.2118 163.834 99.9898 163.834 100.786C163.832 101.853 163.382 102.875 162.582 103.63C161.782 104.384 160.697 104.809 159.565 104.81V104.81ZM159.565 97.2725C158.828 97.2725 158.108 97.4785 157.495 97.8646C156.882 98.2506 156.404 98.7993 156.122 99.4413C155.84 100.083 155.766 100.79 155.91 101.471C156.054 102.153 156.409 102.779 156.93 103.27C157.451 103.761 158.115 104.096 158.838 104.232C159.561 104.367 160.31 104.298 160.991 104.032C161.672 103.766 162.254 103.315 162.664 102.738C163.073 102.16 163.292 101.481 163.292 100.786C163.291 99.8543 162.898 98.9613 162.199 98.3026C161.5 97.644 160.553 97.2735 159.565 97.2725V97.2725Z"
		fill="#3F3D56"
	/>
	<path
		d="M111.583 133.886C110.739 133.886 109.914 133.65 109.212 133.208C108.51 132.766 107.963 132.137 107.64 131.402C107.317 130.667 107.232 129.857 107.397 129.077C107.561 128.296 107.968 127.579 108.565 127.017C109.162 126.454 109.922 126.07 110.75 125.915C111.578 125.76 112.436 125.84 113.216 126.144C113.996 126.449 114.663 126.964 115.132 127.626C115.601 128.288 115.851 129.066 115.851 129.862C115.85 130.929 115.4 131.952 114.6 132.706C113.8 133.46 112.715 133.885 111.583 133.886V133.886ZM111.583 126.349C110.846 126.349 110.126 126.555 109.513 126.941C108.9 127.327 108.422 127.876 108.14 128.517C107.858 129.159 107.784 129.866 107.928 130.547C108.072 131.229 108.427 131.855 108.948 132.346C109.469 132.838 110.133 133.172 110.856 133.308C111.579 133.443 112.328 133.374 113.009 133.108C113.69 132.842 114.272 132.391 114.682 131.814C115.091 131.236 115.31 130.557 115.31 129.862C115.308 128.93 114.915 128.037 114.217 127.379C113.518 126.72 112.571 126.35 111.583 126.349V126.349Z"
		fill="#3F3D56"
	/>
	<path
		d="M278.5 174C277.61 174 276.74 173.765 276 173.326C275.26 172.886 274.683 172.262 274.343 171.531C274.002 170.8 273.913 169.996 274.086 169.22C274.26 168.444 274.689 167.731 275.318 167.172C275.947 166.612 276.749 166.231 277.622 166.077C278.495 165.923 279.4 166.002 280.222 166.304C281.044 166.607 281.747 167.12 282.242 167.778C282.736 168.435 283 169.209 283 170C282.999 171.06 282.524 172.077 281.681 172.827C280.837 173.577 279.693 173.999 278.5 174V174ZM278.5 166.508C277.723 166.508 276.963 166.713 276.317 167.096C275.671 167.48 275.168 168.025 274.87 168.664C274.573 169.302 274.495 170.004 274.647 170.681C274.798 171.359 275.172 171.981 275.722 172.469C276.271 172.958 276.971 173.29 277.734 173.425C278.496 173.56 279.286 173.491 280.004 173.226C280.721 172.962 281.335 172.514 281.767 171.94C282.198 171.366 282.429 170.691 282.429 170C282.428 169.074 282.013 168.186 281.277 167.532C280.54 166.877 279.542 166.509 278.5 166.508Z"
		fill="#3F3D56"
	/>
</svg>
