<svg
	width="173"
	height="160"
	viewBox="0 0 173 160"
	fill="none"
	xmlns="http://www.w3.org/2000/svg"
>
	<path
		d="M149.092 14.7121L4.1333 57.5383L7.97284 70.9008L152.932 28.0746L149.092 14.7121Z"
		fill="#3F3D56"
	/>
	<path
		d="M21.4521 118.917L0.086272 44.5593C-0.072128 44.008 -0.00805978 43.4155 0.264373 42.9121C0.536805 42.4087 0.995287 42.0357 1.53897 41.8751L142.984 0.0870658C143.527 -0.0730118 144.111 -0.00782663 144.608 0.26832C145.104 0.544467 145.472 1.00901 145.631 1.55998L164.559 67.4358L163.974 67.6089L145.045 1.73305C144.931 1.33967 144.669 1.00804 144.314 0.810818C143.96 0.613601 143.543 0.566873 143.154 0.680878L1.70961 42.4689C1.32127 42.5836 0.993782 42.8501 0.799187 43.2097C0.604592 43.5692 0.55883 43.9925 0.671967 44.3863L22.0378 118.744L21.4521 118.917Z"
		fill="#3F3D56"
	/>
	<path
		d="M133.253 67.7418C132.824 67.7414 132.406 67.6 132.063 67.3389C131.72 67.0778 131.469 66.711 131.349 66.2934L127.765 53.8217C127.619 53.3098 127.678 52.7599 127.931 52.2927C128.184 51.8254 128.609 51.4789 129.114 51.3292L141.413 47.6955C141.918 47.547 142.461 47.6076 142.921 47.8641C143.382 48.1205 143.724 48.5519 143.872 49.0635L147.455 61.5351C147.602 62.047 147.542 62.5969 147.289 63.0642C147.036 63.5314 146.611 63.8779 146.106 64.0276L133.807 67.6613C133.627 67.7146 133.44 67.7418 133.253 67.7418V67.7418Z"
		fill="#38e190"
	/>
	<path
		d="M21.1218 44.7892C21.0849 44.6611 21.0411 44.5351 20.9905 44.4119C20.6466 43.5655 20.0064 42.8779 19.1929 42.4811C18.3794 42.0843 17.4499 42.0064 16.5832 42.2623C15.7164 42.5182 14.9735 43.0898 14.4972 43.8674C14.0208 44.645 13.8447 45.5736 14.0026 46.4749C14.0247 46.6064 14.0543 46.7365 14.091 46.8646C14.3138 47.6355 14.7768 48.3125 15.4108 48.7943C16.0448 49.276 16.8156 49.5366 17.6079 49.5369C17.9538 49.5376 18.298 49.4876 18.6297 49.3884C19.561 49.1125 20.3462 48.4734 20.8134 47.6112C21.2806 46.749 21.3915 45.7342 21.1218 44.7892V44.7892ZM18.4589 48.7946C17.6823 49.0231 16.848 48.93 16.139 48.5358C15.43 48.1415 14.9041 47.4782 14.6767 46.6914C14.6409 46.5632 14.6124 46.4331 14.5912 46.3017C14.4768 45.5591 14.633 44.7997 15.0307 44.1655C15.4284 43.5312 16.0403 43.0656 16.752 42.8556C17.4637 42.6456 18.2264 42.7057 18.8976 43.0246C19.5688 43.3434 20.1024 43.8993 20.3988 44.5882C20.454 44.7091 20.5 44.8343 20.5361 44.9624C20.7612 45.7499 20.6689 46.5958 20.2794 47.3143C19.89 48.0328 19.2352 48.5652 18.4589 48.7946V48.7946Z"
		fill="#38e190"
	/>
	<path
		d="M12.1442 47.4399C11.949 46.7601 11.9677 46.0356 12.1978 45.3671C12.4279 44.6987 12.8579 44.1196 13.4278 43.7107C12.8938 43.6843 12.3614 43.7877 11.8748 44.0122C11.3882 44.2368 10.9615 44.5759 10.6304 45.0015C10.2993 45.4271 10.0732 45.9268 9.97106 46.4589C9.86892 46.991 9.89366 47.5401 10.0432 48.0606C10.1927 48.581 10.4628 49.0577 10.8308 49.4509C11.1988 49.8441 11.6542 50.1425 12.1589 50.3211C12.6637 50.4997 13.2032 50.5535 13.7326 50.4778C14.262 50.4022 14.7659 50.1994 15.2023 49.8863C14.5049 49.8518 13.8355 49.5976 13.2874 49.159C12.7392 48.7205 12.3396 48.1196 12.1442 47.4399V47.4399Z"
		fill="#38e190"
	/>
	<path
		d="M106.964 62.7684C106.899 62.5317 106.789 62.3103 106.64 62.1169C106.49 61.9235 106.305 61.7618 106.094 61.6412C105.883 61.5205 105.65 61.4432 105.41 61.4138C105.169 61.3843 104.925 61.4032 104.692 61.4694L84.4414 67.2129L82.2605 67.8315H95.956L98.1369 67.2129L105.686 65.0726C106.157 64.9386 106.556 64.6206 106.795 64.1886C107.035 63.7566 107.096 63.2458 106.964 62.7684V62.7684Z"
		fill="#CCCCCC"
	/>
	<path
		d="M92.6374 58.4785C92.5055 58.0012 92.192 57.5965 91.7658 57.3535C91.3397 57.1104 90.8358 57.049 90.3649 57.1826L59.9787 65.7995C59.5541 65.9215 59.1864 66.1932 58.942 66.5658C58.6976 66.9384 58.5925 67.3873 58.6457 67.8315H66.5122L68.6961 67.213L91.3594 60.7859C91.8304 60.6514 92.2295 60.3328 92.4691 59.9003C92.7087 59.4677 92.7692 58.9563 92.6374 58.4785V58.4785Z"
		fill="#CCCCCC"
	/>
	<path
		d="M170.865 67.2122H23.5386C22.9725 67.2129 22.4298 67.4412 22.0295 67.8471C21.6292 68.253 21.4041 68.8033 21.4034 69.3773V157.835C21.4041 158.409 21.6292 158.959 22.0295 159.365C22.4298 159.771 22.9725 159.999 23.5386 160H170.865C171.431 159.999 171.974 159.771 172.374 159.365C172.774 158.959 172.999 158.409 173 157.835V69.3773C172.999 68.8033 172.774 68.253 172.374 67.8471C171.974 67.4412 171.431 67.2129 170.865 67.2122V67.2122ZM172.39 157.835C172.39 158.245 172.229 158.638 171.943 158.928C171.657 159.218 171.269 159.381 170.865 159.381H23.5386C23.1342 159.381 22.7463 159.218 22.4603 158.928C22.1744 158.638 22.0136 158.245 22.0135 157.835V69.3773C22.0137 68.9672 22.1744 68.5739 22.4604 68.284C22.7464 67.994 23.1342 67.831 23.5386 67.8308H170.865C171.269 67.831 171.657 67.994 171.943 68.284C172.229 68.5739 172.39 68.9672 172.39 69.3773V157.835Z"
		fill="#3F3D56"
	/>
	<path
		d="M37.8736 79.2753C37.1497 79.2753 36.442 79.0577 35.8401 78.6498C35.2381 78.242 34.769 77.6624 34.4919 76.9842C34.2149 76.306 34.1424 75.5597 34.2837 74.8398C34.4249 74.1198 34.7735 73.4585 35.2854 72.9394C35.7973 72.4203 36.4495 72.0668 37.1595 71.9236C37.8695 71.7804 38.6055 71.8539 39.2743 72.1348C39.9432 72.4158 40.5148 72.8915 40.917 73.5018C41.3192 74.1122 41.5339 74.8298 41.5339 75.5638C41.5328 76.5478 41.1468 77.4912 40.4606 78.187C39.7744 78.8828 38.844 79.2742 37.8736 79.2753V79.2753ZM37.8736 72.4709C37.2703 72.4709 36.6806 72.6523 36.179 72.9922C35.6774 73.332 35.2864 73.8151 35.0556 74.3802C34.8247 74.9454 34.7643 75.5673 34.882 76.1672C34.9997 76.7672 35.2902 77.3183 35.7168 77.7509C36.1433 78.1834 36.6868 78.478 37.2785 78.5973C37.8702 78.7167 38.4835 78.6554 39.0409 78.4213C39.5982 78.1872 40.0746 77.7908 40.4098 77.2822C40.7449 76.7735 40.9238 76.1756 40.9238 75.5638C40.9229 74.7438 40.6013 73.9577 40.0294 73.3778C39.4576 72.798 38.6823 72.4718 37.8736 72.4709V72.4709Z"
		fill="#38e190"
	/>
	<path
		d="M32.1843 75.5638C32.1844 74.8558 32.4022 74.1655 32.8075 73.589C33.2128 73.0126 33.7854 72.5786 34.4454 72.3476C33.94 72.1708 33.4003 72.1191 32.8712 72.1966C32.3421 72.2742 31.8389 72.4788 31.4036 72.7935C30.9682 73.1081 30.6134 73.5237 30.3685 74.0056C30.1236 74.4875 29.9959 75.0217 29.9959 75.5638C29.9959 76.1059 30.1236 76.6402 30.3685 77.1221C30.6134 77.604 30.9682 78.0196 31.4036 78.3342C31.8389 78.6489 32.3421 78.8535 32.8712 78.9311C33.4003 79.0086 33.94 78.9568 34.4454 78.78C33.7854 78.5491 33.2128 78.1151 32.8075 77.5386C32.4022 76.9621 32.1844 76.2718 32.1843 75.5638V75.5638Z"
		fill="#38e190"
	/>
	<path
		d="M52.711 119.415C51.9832 119.414 51.2854 119.12 50.7708 118.598C50.2562 118.077 49.9667 117.369 49.9658 116.631V108.28C49.9658 107.542 50.2551 106.834 50.7699 106.312C51.2847 105.79 51.983 105.497 52.711 105.497C53.4391 105.497 54.1374 105.79 54.6522 106.312C55.167 106.834 55.4562 107.542 55.4562 108.28V116.631C55.4554 117.369 55.1659 118.077 54.6513 118.598C54.1366 119.12 53.4389 119.414 52.711 119.415V119.415Z"
		fill="#38e190"
	/>
	<path
		d="M60.0316 119.415C59.3038 119.414 58.606 119.12 58.0914 118.598C57.5767 118.077 57.2872 117.369 57.2864 116.631V108.28C57.2864 107.542 57.5756 106.834 58.0904 106.312C58.6053 105.79 59.3035 105.497 60.0316 105.497C60.7597 105.497 61.4579 105.79 61.9727 106.312C62.4876 106.834 62.7768 107.542 62.7768 108.28V116.631C62.776 117.369 62.4865 118.077 61.9718 118.598C61.4572 119.12 60.7594 119.414 60.0316 119.415V119.415Z"
		fill="#38e190"
	/>
	<path
		d="M67.3521 119.415C66.6243 119.414 65.9266 119.12 65.4119 118.598C64.8973 118.077 64.6078 117.369 64.6069 116.631V108.28C64.6069 107.542 64.8962 106.834 65.411 106.312C65.9258 105.79 66.6241 105.497 67.3521 105.497C68.0802 105.497 68.7785 105.79 69.2933 106.312C69.8081 106.834 70.0974 107.542 70.0974 108.28V116.631C70.0965 117.369 69.807 118.077 69.2924 118.598C68.7777 119.12 68.08 119.414 67.3521 119.415V119.415Z"
		fill="#38e190"
	/>
	<path
		d="M78.638 119.415C77.9102 119.414 77.2124 119.12 76.6978 118.598C76.1831 118.077 75.8936 117.369 75.8928 116.631V108.28C75.8928 107.542 76.182 106.834 76.6968 106.312C77.2117 105.79 77.9099 105.497 78.638 105.497C79.3661 105.497 80.0643 105.79 80.5791 106.312C81.094 106.834 81.3832 107.542 81.3832 108.28V116.631C81.3823 117.369 81.0929 118.077 80.5782 118.598C80.0636 119.12 79.3658 119.414 78.638 119.415V119.415Z"
		fill="#38e190"
	/>
	<path
		d="M85.9585 119.415C85.2307 119.414 84.533 119.12 84.0183 118.598C83.5037 118.077 83.2142 117.369 83.2133 116.631V108.28C83.2133 107.542 83.5026 106.834 84.0174 106.312C84.5322 105.79 85.2305 105.497 85.9585 105.497C86.6866 105.497 87.3849 105.79 87.8997 106.312C88.4145 106.834 88.7037 107.542 88.7037 108.28V116.631C88.7029 117.369 88.4134 118.077 87.8988 118.598C87.3841 119.12 86.6864 119.414 85.9585 119.415V119.415Z"
		fill="#38e190"
	/>
	<path
		d="M93.2791 119.415C92.5512 119.414 91.8535 119.12 91.3388 118.598C90.8242 118.077 90.5347 117.369 90.5339 116.631V108.28C90.5339 107.542 90.8231 106.834 91.3379 106.312C91.8527 105.79 92.551 105.497 93.2791 105.497C94.0071 105.497 94.7054 105.79 95.2202 106.312C95.735 106.834 96.0243 107.542 96.0243 108.28V116.631C96.0234 117.369 95.7339 118.077 95.2193 118.598C94.7047 119.12 94.0069 119.414 93.2791 119.415V119.415Z"
		fill="#38e190"
	/>
	<path
		d="M104.565 119.415C103.837 119.414 103.139 119.12 102.625 118.598C102.11 118.077 101.821 117.369 101.82 116.631V108.28C101.82 107.542 102.109 106.834 102.624 106.312C103.139 105.79 103.837 105.497 104.565 105.497C105.293 105.497 105.991 105.79 106.506 106.312C107.021 106.834 107.31 107.542 107.31 108.28V116.631C107.309 117.369 107.02 118.077 106.505 118.598C105.991 119.12 105.293 119.414 104.565 119.415V119.415Z"
		fill="#38e190"
	/>
	<path
		d="M111.885 119.415C111.158 119.414 110.46 119.12 109.945 118.598C109.431 118.077 109.141 117.369 109.14 116.631V108.28C109.14 107.542 109.43 106.834 109.944 106.312C110.459 105.79 111.157 105.497 111.885 105.497C112.614 105.497 113.312 105.79 113.827 106.312C114.341 106.834 114.631 107.542 114.631 108.28V116.631C114.63 117.369 114.34 118.077 113.826 118.598C113.311 119.12 112.613 119.414 111.885 119.415V119.415Z"
		fill="#38e190"
	/>
	<path
		d="M119.206 119.415C118.478 119.414 117.78 119.12 117.266 118.598C116.751 118.077 116.462 117.369 116.461 116.631V108.28C116.461 107.542 116.75 106.834 117.265 106.312C117.78 105.79 118.478 105.497 119.206 105.497C119.934 105.497 120.632 105.79 121.147 106.312C121.662 106.834 121.951 107.542 121.951 108.28V116.631C121.95 117.369 121.661 118.077 121.146 118.598C120.632 119.12 119.934 119.414 119.206 119.415V119.415Z"
		fill="#38e190"
	/>
	<path
		d="M130.492 119.415C129.764 119.414 129.066 119.12 128.552 118.598C128.037 118.077 127.748 117.369 127.747 116.631V108.28C127.747 107.542 128.036 106.834 128.551 106.312C129.066 105.79 129.764 105.497 130.492 105.497C131.22 105.497 131.918 105.79 132.433 106.312C132.948 106.834 133.237 107.542 133.237 108.28V116.631C133.236 117.369 132.947 118.077 132.432 118.598C131.917 119.12 131.22 119.414 130.492 119.415V119.415Z"
		fill="#38e190"
	/>
	<path
		d="M137.812 119.415C137.085 119.414 136.387 119.12 135.872 118.598C135.358 118.077 135.068 117.369 135.067 116.631V108.28C135.067 107.542 135.356 106.834 135.871 106.312C136.386 105.79 137.084 105.497 137.812 105.497C138.541 105.497 139.239 105.79 139.754 106.312C140.268 106.834 140.558 107.542 140.558 108.28V116.631C140.557 117.369 140.267 118.077 139.753 118.598C139.238 119.12 138.54 119.414 137.812 119.415V119.415Z"
		fill="#38e190"
	/>
	<path
		d="M145.133 119.415C144.405 119.414 143.707 119.12 143.193 118.598C142.678 118.077 142.389 117.369 142.388 116.631V108.28C142.388 107.542 142.677 106.834 143.192 106.312C143.707 105.79 144.405 105.497 145.133 105.497C145.861 105.497 146.559 105.79 147.074 106.312C147.589 106.834 147.878 107.542 147.878 108.28V116.631C147.877 117.369 147.588 118.077 147.073 118.598C146.559 119.12 145.861 119.414 145.133 119.415V119.415Z"
		fill="#38e190"
	/>
	<path
		d="M71.3229 150.396H31.8407C31.3514 150.396 30.8823 150.199 30.5363 149.848C30.1904 149.497 29.9961 149.021 29.9961 148.525C29.9961 148.029 30.1904 147.553 30.5363 147.203C30.8823 146.852 31.3514 146.655 31.8407 146.655H71.3229C71.8122 146.655 72.2813 146.852 72.6273 147.203C72.9732 147.553 73.1675 148.029 73.1675 148.525C73.1675 149.021 72.9732 149.497 72.6273 149.848C72.2813 150.199 71.8122 150.396 71.3229 150.396Z"
		fill="#E6E6E6"
	/>
	<path
		d="M58.6645 142.354H44.4991C44.0099 142.354 43.5407 142.157 43.1948 141.806C42.8489 141.455 42.6545 140.98 42.6545 140.484C42.6545 139.988 42.8489 139.512 43.1948 139.161C43.5407 138.81 44.0099 138.613 44.4991 138.613H58.6645C59.1537 138.613 59.6229 138.81 59.9688 139.161C60.3147 139.512 60.5091 139.988 60.5091 140.484C60.5091 140.98 60.3147 141.455 59.9688 141.806C59.6229 142.157 59.1537 142.354 58.6645 142.354V142.354Z"
		fill="#E6E6E6"
	/>
	<path d="M172.28 85.7018H21.9037V86.3204H172.28V85.7018Z" fill="#3F3D56" />
</svg>
