<svg
	width="272"
	height="206"
	viewBox="0 0 272 206"
	fill="none"
	xmlns="http://www.w3.org/2000/svg"
>
	<path
		d="M61 206C65.9705 206 70 204.433 70 202.5C70 200.567 65.9705 199 61 199C56.0294 199 52 200.567 52 202.5C52 204.433 56.0294 206 61 206Z"
		fill="#2F2E41"
	/>
	<path
		d="M82.9999 205C87.9702 205 92 203.657 92 202C92 200.343 87.9702 199 82.9999 199C78.0294 199 74 200.343 74 202C74 203.657 78.0294 205 82.9999 205Z"
		fill="#2F2E41"
	/>
	<path
		d="M111.849 149.782C120.543 144.932 126.315 138.86 124.741 136.22C123.169 133.578 114.845 135.369 106.151 140.219C97.4573 145.068 91.6849 151.139 93.2586 153.781C94.8322 156.421 103.155 154.631 111.849 149.782Z"
		fill="#2F2E41"
	/>
	<path
		d="M103.536 161.605C106.676 142.528 93.5351 124.553 74.1856 121.457C54.8355 118.361 36.6038 131.317 33.4637 150.395C30.3236 169.472 43.4644 187.447 62.8143 190.543C82.1643 193.639 100.396 180.683 103.536 161.605Z"
		fill="#2F2E41"
	/>
	<path d="M63 183H52V202H63V183Z" fill="#2F2E41" />
	<path d="M85 183H74V202H85V183Z" fill="#2F2E41" />
	<path
		d="M69.5 159C76.4036 159 82 153.627 82 147C82 140.373 76.4036 135 69.5 135C62.5964 135 57 140.373 57 147C57 153.627 62.5964 159 69.5 159Z"
		fill="white"
	/>
	<path
		d="M69 151C71.2092 151 73 149.209 73 147C73 144.79 71.2092 143 69 143C66.7909 143 65 144.79 65 147C65 149.209 66.7909 151 69 151Z"
		fill="#3F3D56"
	/>
	<path
		d="M33.5313 124.086C30.6294 111.503 39.9056 98.7889 54.2504 95.6872C68.5951 92.5862 82.5763 100.272 85.4781 112.855C88.3804 125.439 78.8732 130.08 64.5285 133.181C50.1838 136.281 36.4332 136.669 33.5313 124.086Z"
		fill="#E6E6E6"
	/>
	<path
		d="M43.8234 147.504C45.1246 144.761 39.095 139.177 30.356 135.033C21.6169 130.889 13.4778 129.753 12.1766 132.496C10.8754 135.239 16.9049 140.822 25.644 144.967C34.383 149.111 42.5222 150.247 43.8234 147.504Z"
		fill="#2F2E41"
	/>
	<path
		d="M51 168.412C51 171.971 59.9207 179 69.8196 179C79.7184 179 89 168.98 89 165.421C89 161.862 79.7184 166.111 69.8196 166.111C59.9207 166.111 51 164.853 51 168.412Z"
		fill="white"
	/>
	<path
		d="M193 206C197.97 206 202 204.433 202 202.5C202 200.567 197.97 199 193 199C188.029 199 184 200.567 184 202.5C184 204.433 188.029 206 193 206Z"
		fill="#2F2E41"
	/>
	<path
		d="M171 205C175.971 205 180 203.657 180 202C180 200.343 175.971 199 171 199C166.03 199 162 200.343 162 202C162 203.657 166.03 205 171 205Z"
		fill="#2F2E41"
	/>
	<path
		d="M160.75 153.78C162.274 151.139 156.682 145.067 148.259 140.219C139.838 135.369 131.775 133.578 130.25 136.22C128.727 138.86 134.318 144.932 142.74 149.781C151.162 154.631 159.225 156.422 160.75 153.78Z"
		fill="#2F2E41"
	/>
	<path
		d="M186 191C205.882 191 222 175.33 222 156C222 136.67 205.882 121 186 121C166.118 121 150 136.67 150 156C150 175.33 166.118 191 186 191Z"
		fill="#2F2E41"
	/>
	<path d="M202 183H191V202H202V183Z" fill="#2F2E41" />
	<path d="M180 183H170V202H180V183Z" fill="#2F2E41" />
	<path
		d="M177.5 159C184.403 159 190 153.627 190 147C190 140.373 184.403 135 177.5 135C170.597 135 165 140.373 165 147C165 153.627 170.597 159 177.5 159Z"
		fill="white"
	/>
	<path
		d="M174.817 148.82C176.386 147.253 176.395 144.72 174.84 143.163C173.284 141.605 170.751 141.614 169.183 143.181C167.614 144.747 167.605 147.28 169.16 148.837C170.716 150.395 173.249 150.386 174.817 148.82Z"
		fill="#3F3D56"
	/>
	<path
		d="M189.472 133.181C175.127 130.08 165.62 125.439 168.522 112.855C171.423 100.272 185.405 92.5862 199.749 95.6872C214.094 98.7881 223.371 111.503 220.469 124.086C217.567 136.669 203.816 136.281 189.472 133.181Z"
		fill="#38E190"
	/>
	<path
		d="M223.521 182.94C226.473 182.161 226.841 173.944 224.344 164.588C221.847 155.231 217.43 148.279 214.479 149.06C211.527 149.84 211.159 158.057 213.656 167.412C216.153 176.769 220.57 183.72 223.521 182.94Z"
		fill="#2F2E41"
	/>
	<path
		d="M177.619 166.111C171.107 166.111 165 161.862 165 165.421C165 168.981 171.107 179 177.619 179C184.131 179 190 171.972 190 168.413C190 164.854 184.131 166.111 177.619 166.111Z"
		fill="white"
	/>
	<path
		d="M131.512 99H128.363C125.542 98.9967 122.837 97.8911 120.843 95.9265C118.849 93.9611 117.726 91.2964 117.723 88.5174V85.9127C117.723 79.4616 118.964 74.0601 121.411 69.8583C124.376 64.9703 127.836 60.3905 131.736 56.1887C134.327 53.623 136.676 50.8326 138.758 47.8507C140.251 45.5349 141.022 42.8378 140.975 40.0945C140.975 33.623 136.696 30.4766 127.892 30.4766C123.009 30.5317 118.156 31.2488 113.472 32.6091C111.665 33.1177 109.764 33.2053 107.917 32.8662C106.07 32.528 104.328 31.7712 102.829 30.6558C101.329 29.5413 100.112 28.099 99.2746 26.4418C98.4365 24.7855 98.0001 22.9595 98.0001 21.1085V15.836C97.9902 13.5663 98.648 11.3424 99.8945 9.43372C101.142 7.52515 102.923 6.01379 105.025 5.08307C113.298 1.6045 122.22 -0.124807 131.214 0.0070067C140.636 0.0070067 149.142 1.5663 156.495 4.64107C163.862 7.72291 169.681 12.0686 173.794 17.558C177.893 23.0082 180.071 29.6289 179.998 36.4126C179.998 43.6968 177.979 50.0409 173.999 55.2688C170.062 60.444 164.417 66.1099 157.223 72.1093C153.433 75.2152 149.841 78.549 146.469 82.0914C144.29 84.4032 142.751 87.2276 141.996 90.2938C141.577 92.7321 140.293 94.9458 138.373 96.5397C136.453 98.1336 134.022 99.0056 131.512 99Z"
		fill="#38E190"
	/>
	<path
		d="M129.7 148H129.273C123.895 147.996 118.739 145.94 114.937 142.284C111.135 138.628 109 133.669 109 128.5C109 123.331 111.135 118.372 114.937 114.716C118.739 111.06 123.895 109.003 129.273 109H129.7C132.366 108.998 135.005 109.502 137.468 110.481C139.93 111.46 142.169 112.896 144.053 114.707C145.939 116.518 147.434 118.668 148.454 121.035C149.475 123.401 150 125.938 150 128.5C150 131.062 149.475 133.599 148.454 135.965C147.434 138.332 145.939 140.482 144.053 142.293C142.169 144.103 139.93 145.54 137.468 146.519C135.005 147.498 132.366 148.002 129.7 148Z"
		fill="#38E190"
	/>
	<path
		d="M259.169 206H0.830671C0.610364 206 0.399091 205.895 0.24331 205.707C0.0875286 205.52 0 205.265 0 205C0 204.735 0.0875286 204.48 0.24331 204.293C0.399091 204.105 0.610364 204 0.830671 204H259.169C259.389 204 259.601 204.105 259.757 204.293C259.913 204.48 260 204.735 260 205C260 205.265 259.913 205.52 259.757 205.707C259.601 205.895 259.389 206 259.169 206Z"
		fill="#CCCCCC"
	/>
	<path
		d="M266.5 88C269.538 88 272 85.7617 272 83C272 80.2391 269.538 78 266.5 78C263.462 78 261 80.2391 261 83C261 85.7617 263.462 88 266.5 88Z"
		fill="#F2F2F2"
	/>
	<path
		d="M50.5 70C53.5375 70 56 67.5379 56 64.5C56 61.463 53.5375 59 50.5 59C47.4624 59 45 61.463 45 64.5C45 67.5379 47.4624 70 50.5 70Z"
		fill="#F2F2F2"
	/>
</svg>
