<svg
	width="318"
	height="175"
	viewBox="0 0 318 175"
	fill="none"
	xmlns="http://www.w3.org/2000/svg"
>
	<path
		d="M278.357 76.8225C294.03 76.8225 306.735 64.3872 306.735 49.0473C306.735 33.7075 294.03 21.272 278.357 21.272C262.685 21.272 249.979 33.7075 249.979 49.0473C249.979 64.3872 262.685 76.8225 278.357 76.8225Z"
		fill="#2F2E41"
	/>
	<path d="M291.289 70.8459H282.668V85.9637H291.289V70.8459Z" fill="#2F2E41" />
	<path d="M274.047 70.8459H265.426V85.9637H274.047V70.8459Z" fill="#2F2E41" />
	<path
		d="M284.105 88.7768C288.072 88.7768 291.289 87.596 291.289 86.1397C291.289 84.6835 288.072 83.5026 284.105 83.5026C280.137 83.5026 276.92 84.6835 276.92 86.1397C276.92 87.596 280.137 88.7768 284.105 88.7768Z"
		fill="#2F2E41"
	/>
	<path
		d="M266.862 88.4247C270.83 88.4247 274.047 87.2445 274.047 85.7883C274.047 84.332 270.83 83.1512 266.862 83.1512C262.895 83.1512 259.678 84.332 259.678 85.7883C259.678 87.2445 262.895 88.4247 266.862 88.4247Z"
		fill="#2F2E41"
	/>
	<path
		d="M277.639 51.5084C282.995 51.5084 287.337 47.2583 287.337 42.0155C287.337 36.7728 282.995 32.5227 277.639 32.5227C272.282 32.5227 267.94 36.7728 267.94 42.0155C267.94 47.2583 272.282 51.5084 277.639 51.5084Z"
		fill="white"
	/>
	<path
		d="M279.062 42.7776C280.848 42.7776 282.295 41.3609 282.295 39.6133C282.295 37.8657 280.848 36.449 279.062 36.449C277.277 36.449 275.829 37.8657 275.829 39.6133C275.829 41.3609 277.277 42.7776 279.062 42.7776Z"
		fill="#3F3D56"
	/>
	<path
		d="M305.885 23.217C308.176 13.173 300.851 3.02407 289.525 0.548594C278.198 -1.92688 267.158 4.20863 264.867 14.2526C262.576 24.2965 270.082 28.0009 281.409 30.4764C292.735 32.9519 303.593 33.261 305.885 23.217Z"
		fill="#38e190"
	/>
	<path
		d="M292.296 59.0675C292.296 61.7859 285.145 67.1537 277.209 67.1537C269.274 67.1537 261.833 59.5006 261.833 56.7822C261.833 54.0638 269.274 57.3096 277.209 57.3096C285.145 57.3096 292.296 56.349 292.296 59.0675Z"
		fill="white"
	/>
	<path
		d="M315.343 38.0461C318.176 30.0004 318.38 22.7724 315.8 21.9019C313.219 21.0315 308.831 26.8482 305.998 34.8939C303.165 42.9396 302.96 50.1676 305.541 51.038C308.122 51.9085 312.51 46.0918 315.343 38.0461Z"
		fill="#2F2E41"
	/>
	<path
		d="M256.116 48.7695C258.047 46.8811 254.63 40.4702 248.484 34.4504C242.338 28.4305 235.791 25.0813 233.86 26.9696C231.93 28.858 235.346 35.2689 241.492 41.2888C247.638 47.3086 254.185 50.6578 256.116 48.7695Z"
		fill="#2F2E41"
	/>
	<path
		d="M155.683 119.539C155.678 118.725 155.402 117.939 154.904 117.321C154.406 116.703 153.719 116.292 152.963 116.161L106.463 108.046C106.017 107.968 105.56 107.989 105.123 108.11L94.2252 111.104L87.9725 112.824L76.4334 115.994C75.7368 116.187 75.12 116.619 74.6796 117.224C74.2392 117.829 74.0002 118.572 74 119.337V159.841C74.0035 160.63 74.2601 161.395 74.7277 162.008C75.1952 162.622 75.8456 163.048 76.5715 163.215L123.935 173.925C124.157 173.976 124.384 174.001 124.612 174C124.943 174.001 125.273 173.947 125.589 173.842L153.729 164.398C154.393 164.177 154.972 163.735 155.382 163.137C155.791 162.539 156.007 161.817 156 161.078L155.683 119.539Z"
		fill="white"
	/>
	<path
		d="M105.974 111C105.94 111 105.906 111.005 105.874 111.014L77.3026 118.904C77.216 118.928 77.1393 118.982 77.0845 119.058C77.0297 119.133 77 119.226 77 119.322V159.852C77.0003 159.951 77.0322 160.046 77.0904 160.123C77.1485 160.2 77.2294 160.253 77.3197 160.274L124.488 170.991C124.556 171.006 124.627 171.002 124.694 170.98L152.718 161.53C152.801 161.502 152.873 161.447 152.923 161.372C152.974 161.298 153.001 161.207 153 161.115L152.686 119.548C152.685 119.446 152.651 119.348 152.589 119.271C152.527 119.194 152.441 119.142 152.347 119.126L106.039 111.006C106.018 111.002 105.996 111 105.974 111V111Z"
		fill="#38e190"
	/>
	<path
		d="M155.683 119.539C155.678 118.725 155.402 117.939 154.904 117.321C154.406 116.703 153.719 116.292 152.963 116.161L106.463 108.046C106.017 107.968 105.56 107.989 105.123 108.11L94.2252 111.104L87.9725 112.824L76.4334 115.994C75.7368 116.187 75.12 116.619 74.6796 117.224C74.2392 117.829 74.0002 118.572 74 119.337V159.841C74.0035 160.63 74.2601 161.395 74.7277 162.008C75.1952 162.622 75.8456 163.048 76.5715 163.215L123.935 173.925C124.157 173.976 124.384 174.001 124.612 174C124.943 174.001 125.273 173.947 125.589 173.842L153.729 164.398C154.393 164.177 154.972 163.735 155.382 163.137C155.791 162.539 156.007 161.817 156 161.078L155.683 119.539ZM153.485 163.575L125.345 173.019C124.944 173.152 124.517 173.174 124.106 173.082L76.7393 162.372C76.195 162.246 75.7075 161.927 75.3571 161.467C75.0068 161.006 74.8145 160.433 74.812 159.841V119.337C74.8124 118.807 74.9657 118.29 75.2512 117.855C75.5368 117.421 75.9409 117.089 76.4091 116.906C76.4834 116.877 76.5593 116.852 76.6364 116.832L88.8441 113.477L96.0631 111.493L105.326 108.947C105.524 108.89 105.729 108.862 105.935 108.863C106.067 108.863 106.199 108.875 106.33 108.898L152.83 117.013C153.204 117.078 153.559 117.235 153.866 117.471C154.174 117.707 154.425 118.016 154.6 118.374C154.776 118.736 154.869 119.137 154.871 119.544L155.188 161.084C155.194 161.638 155.031 162.18 154.724 162.629C154.418 163.078 153.983 163.409 153.485 163.575V163.575Z"
		fill="#3F3D56"
	/>
	<path
		d="M153.805 118.606C153.773 118.628 153.739 118.644 153.703 118.654L140.171 122.448L135.959 123.628L123.977 126.986C123.943 126.995 123.908 126.999 123.873 127C123.849 127 123.825 126.998 123.801 126.994L75.4895 117.859L75.3288 117.829C75.2241 117.808 75.1314 117.746 75.071 117.655C75.0106 117.564 74.9874 117.452 75.0065 117.343C75.0257 117.234 75.0855 117.138 75.173 117.075C75.2605 117.012 75.3686 116.987 75.4735 117.006L76.4456 117.19L123.857 126.156L134.183 123.261L139.96 121.642L153.283 117.906L153.494 117.848C153.586 117.823 153.683 117.832 153.768 117.874C153.854 117.915 153.923 117.987 153.963 118.076C153.973 118.097 153.981 118.119 153.987 118.142C154.009 118.23 154.003 118.322 153.97 118.406C153.937 118.489 153.879 118.56 153.805 118.606Z"
		fill="#3F3D56"
	/>
	<path
		d="M141 167.788L136.73 169L134.93 122.988L89.0072 113.387C88.9622 113.379 88.9177 113.367 88.8741 113.353C88.5214 113.248 88.2132 113.019 88 112.706L94.2707 111L96.114 111.385L139.689 120.492C139.918 120.54 140.135 120.639 140.324 120.783C140.513 120.926 140.671 121.111 140.786 121.325C140.921 121.573 140.997 167.491 141 167.788Z"
		fill="#3F3D56"
	/>
	<path
		d="M93.3387 148C93.2896 148 93.2406 147.994 93.1927 147.981L79.5154 144.482C79.3443 144.438 79.1957 144.318 79.1021 144.15C79.0085 143.982 78.9776 143.779 79.0162 143.585C79.0548 143.391 79.1597 143.223 79.3079 143.116C79.4561 143.01 79.6355 142.975 79.8066 143.018L93.4839 146.518C93.6427 146.559 93.7827 146.664 93.8772 146.815C93.9716 146.965 94.0139 147.149 93.996 147.333C93.978 147.516 93.901 147.685 93.7798 147.809C93.6585 147.932 93.5015 148 93.3387 148V148Z"
		fill="white"
	/>
	<path
		d="M0 174L311 174"
		stroke="#3F3D56"
		stroke-width="2"
		stroke-miterlimit="10"
	/>
	<path d="M209.306 85L171 137.829V159L221 85H209.306Z" fill="#3F3D56" />
	<path d="M192.751 85L171 113.212V137L208 85H192.751Z" fill="#3F3D56" />
	<path d="M192 85H171V112L192 85Z" fill="#3F3D56" />
	<path d="M222.102 85L171 161.063V174H298V85H222.102Z" fill="#3F3D56" />
</svg>
