<svg
	width="202"
	height="152"
	viewBox="0 0 202 152"
	fill="none"
	xmlns="http://www.w3.org/2000/svg"
>
	<path d="M152.235 46.5101H50.925V47.0101H152.235V46.5101Z" fill="#CCCCCC" />
	<path d="M101.75 0.250427H101.25V46.7596H101.75V0.250427Z" fill="#CCCCCC" />
	<path d="M144.162 23.2551H58.8375V23.7551H144.162V23.2551Z" fill="#CCCCCC" />
	<path
		d="M117.635 82.5857C117.636 85.1293 116.713 87.5867 115.037 89.5007C114.887 89.6732 114.73 89.8382 114.57 90.0007H99.6951C99.5351 89.8382 99.3775 89.6732 99.2276 89.5007C98.2448 88.3808 97.5126 87.0639 97.08 85.6382C97.08 85.6382 97.0825 85.6382 97.08 85.6357C96.7808 84.6467 96.6292 83.6189 96.63 82.5857C96.6293 82.1603 96.6552 81.7353 96.7075 81.3132C97.0186 78.7697 98.2487 76.4276 100.166 74.728C102.084 73.0283 104.557 72.0883 107.119 72.085C109.682 72.0816 112.157 73.0151 114.079 74.7096C116.001 76.4042 117.237 78.743 117.555 81.2857C117.608 81.717 117.635 82.1511 117.635 82.5857V82.5857Z"
		fill="#2F2E41"
	/>
	<path
		d="M93.895 90.0008H92.61L93.6075 89.5008L93.6375 89.4857L93.645 89.5008L93.895 90.0008Z"
		fill="#2F2E41"
	/>
	<path
		d="M102.652 90.0008H101.367L101.617 89.5008L101.625 89.4857L101.655 89.5008L102.652 90.0008Z"
		fill="#2F2E41"
	/>
	<path
		d="M106.397 83.6066C108.379 83.6066 109.987 81.9995 109.987 80.017C109.987 78.0345 108.379 76.4273 106.397 76.4273C104.414 76.4273 102.807 78.0345 102.807 80.017C102.807 81.9995 104.414 83.6066 106.397 83.6066Z"
		fill="white"
	/>
	<path
		d="M106.02 81.5788C106.485 81.1135 106.483 80.3563 106.014 79.8877C105.546 79.4191 104.788 79.4164 104.323 79.8817C103.858 80.3471 103.86 81.1042 104.329 81.5728C104.798 82.0415 105.555 82.0441 106.02 81.5788Z"
		fill="#3F3D56"
	/>
	<path
		d="M115.418 71.1598C115.576 67.2714 112.224 63.9779 107.933 63.8036C103.641 63.6293 100.033 66.6401 99.8754 70.5285C99.7174 74.4169 102.701 75.3004 106.993 75.4747C111.285 75.6491 115.26 75.0483 115.418 71.1598Z"
		fill="#38e190"
	/>
	<path
		d="M110.017 86.7253C110.073 87.0344 110.068 87.3517 110.002 87.6589C109.935 87.9661 109.809 88.2572 109.63 88.5156C109.452 88.7741 109.224 88.9947 108.959 89.165C108.695 89.3354 108.4 89.452 108.091 89.5083C107.782 89.5646 107.465 89.5594 107.157 89.4931C106.85 89.4268 106.559 89.3006 106.301 89.1218C106.042 88.9429 105.822 88.715 105.651 88.4508C105.481 88.1867 105.364 87.8917 105.308 87.5825L105.307 87.5778C105.072 86.2773 106.077 85.8171 107.378 85.5816C108.678 85.3462 109.781 85.4247 110.017 86.7253Z"
		fill="white"
	/>
	<path
		d="M161.75 89.5002H38.75C37.5565 89.5002 36.4119 89.9744 35.568 90.8183C34.7241 91.6622 34.25 92.8068 34.25 94.0003C34.25 95.1937 34.7241 96.3383 35.568 97.1822C36.4119 98.0262 37.5565 98.5003 38.75 98.5003H161.75C162.943 98.5003 164.088 98.0262 164.932 97.1822C165.776 96.3383 166.25 95.1937 166.25 94.0003C166.25 92.8068 165.776 91.6622 164.932 90.8183C164.088 89.9744 162.943 89.5002 161.75 89.5002V89.5002Z"
		fill="#CCCCCC"
	/>
	<path
		d="M152.5 51.0002V89.7503H152V51.0002C152 49.6576 151.948 48.3276 151.843 47.0101C151.83 46.8426 151.818 46.6776 151.802 46.5101C151.086 38.4048 148.409 30.5953 144.002 23.7551C143.895 23.5876 143.787 23.4226 143.677 23.2551C139.105 16.3009 132.885 10.5847 125.57 6.61518C118.255 2.64563 110.072 0.545794 101.75 0.502504C101.667 0.500004 101.583 0.500001 101.5 0.500001C101.417 0.500001 101.333 0.500004 101.25 0.502504C100.302 0.505004 99.3625 0.535004 98.43 0.592504C94.776 0.810687 91.1569 1.42854 87.6374 2.43501C85.6438 3.00432 83.6875 3.69733 81.78 4.51002C72.6185 8.42187 64.809 14.9404 59.3225 23.2551C59.2125 23.4226 59.105 23.5876 58.9976 23.7551C54.5906 30.5953 51.9136 38.4048 51.1975 46.5101C51.1825 46.6776 51.17 46.8426 51.1575 47.0101C51.0525 48.3276 51 49.6576 51 51.0002V89.7503H50.5V51.0002C50.5 49.4801 50.5658 47.9776 50.6975 46.4926C51.4254 38.1844 54.195 30.1848 58.76 23.2051C65.5447 12.7676 75.9097 5.16939 87.905 1.84001C91.4164 0.868712 95.0222 0.278639 98.66 0.0800021C99.6 0.0275019 100.547 0.000833336 101.5 0C114.244 0.0127751 126.523 4.79129 135.924 13.3965C145.324 22.0018 151.166 33.8115 152.302 46.5051C152.433 47.9851 152.498 49.4835 152.5 51.0002Z"
		fill="#3F3D56"
	/>
	<path
		d="M87.4089 125.519C101.562 125.761 101.56 146.813 87.4084 147.053C73.2559 146.811 73.2581 125.759 87.4089 125.519Z"
		fill="#2F2E41"
	/>
	<path d="M85.7734 144.736H82.5024V150.596H85.7734V144.736Z" fill="#2F2E41" />
	<path d="M92.3152 144.736H89.0443V150.596H92.3152V144.736Z" fill="#2F2E41" />
	<path
		d="M85.2282 149.642C88.7626 149.617 88.7627 151.712 85.2281 151.686C81.6938 151.712 81.6938 149.617 85.2282 149.642Z"
		fill="#2F2E41"
	/>
	<path
		d="M91.7701 149.506C95.3045 149.481 95.3045 151.575 91.7699 151.55C88.2357 151.575 88.2357 149.481 91.7701 149.506Z"
		fill="#2F2E41"
	/>
	<path
		d="M87.6814 129.88C92.4939 129.902 92.4934 137.219 87.6812 137.24C82.869 137.218 82.8695 129.901 87.6814 129.88Z"
		fill="white"
	/>
	<path
		d="M87.6814 132.333C89.2728 132.31 89.2729 134.81 87.6813 134.787C86.0899 134.81 86.0899 132.31 87.6814 132.333Z"
		fill="#3F3D56"
	/>
	<path
		d="M76.9647 126.273C74.9419 117.05 90.4367 113.592 92.5273 122.798C93.3966 126.691 90.5485 128.127 86.251 129.087C81.9536 130.047 77.834 130.166 76.9647 126.273Z"
		fill="#CCCCCC"
	/>
	<path
		d="M92.1022 96.6141C94.6104 90.0457 97.7719 91.2543 95.2594 97.8211C92.7513 104.389 89.5898 103.181 92.1022 96.6141Z"
		fill="#2F2E41"
	/>
	<path
		d="M73.1012 103.623C75.6069 89.6918 96.387 93.0663 94.3567 107.073C91.8512 121.004 71.0711 117.63 73.1012 103.623Z"
		fill="#2F2E41"
	/>
	<path d="M82.0936 113.798H78.8226V119.658H82.0936V113.798Z" fill="#2F2E41" />
	<path d="M88.6354 113.798H85.3645V119.658H88.6354V113.798Z" fill="#2F2E41" />
	<path
		d="M81.5484 118.704C85.0828 118.679 85.0828 120.774 81.5483 120.749C78.014 120.774 78.014 118.679 81.5484 118.704Z"
		fill="#2F2E41"
	/>
	<path
		d="M88.0903 118.568C91.6247 118.543 91.6247 120.638 88.0901 120.612C84.5559 120.638 84.5559 118.543 88.0903 118.568Z"
		fill="#2F2E41"
	/>
	<path
		d="M73.2849 95.3352C71.2621 86.1123 86.7569 82.6541 88.8475 91.8607C89.7168 95.7536 86.8687 97.1896 82.5712 98.1492C78.2737 99.1088 74.1542 99.2287 73.2849 95.3352Z"
		fill="#38e190"
	/>
	<path
		d="M66.738 98.0452C67.4989 95.9976 77.571 100.775 76.466 102.659C75.7052 104.707 65.633 99.9297 66.738 98.0452Z"
		fill="#2F2E41"
	/>
	<path
		d="M121.472 90.5859C122.163 89.9928 121.191 87.7281 119.302 85.5274C117.413 83.3267 115.321 82.0235 114.631 82.6166C113.94 83.2097 114.911 85.4745 116.8 87.6751C118.69 89.8758 120.781 91.179 121.472 90.5859Z"
		fill="#2F2E41"
	/>
	<path
		d="M97.4936 87.6751C99.3828 85.4744 100.354 83.2096 99.6634 82.6166C98.9725 82.0235 96.881 83.3267 94.9918 85.5274C93.1026 87.728 92.1311 89.9928 92.822 90.5859C93.5128 91.179 95.6044 89.8758 97.4936 87.6751Z"
		fill="#2F2E41"
	/>
	<path
		d="M190.75 34.0005H176C175.337 34.0005 174.701 33.7371 174.232 33.2683C173.763 32.7995 173.5 32.1636 173.5 31.5005C173.5 30.8375 173.763 30.2016 174.232 29.7328C174.701 29.2639 175.337 29.0005 176 29.0005V29.5005C175.47 29.5005 174.961 29.7112 174.586 30.0863C174.211 30.4614 174 30.9701 174 31.5005C174 32.031 174.211 32.5397 174.586 32.9147C174.961 33.2898 175.47 33.5005 176 33.5005H190.75V34.0005Z"
		fill="#E6E6E6"
	/>
	<path
		d="M175.5 47.2506H160.75C160.087 47.2506 159.451 46.9872 158.982 46.5183C158.513 46.0495 158.25 45.4136 158.25 44.7506C158.25 44.0875 158.513 43.4516 158.982 42.9828C159.451 42.5139 160.087 42.2505 160.75 42.2505V42.7506C160.22 42.7506 159.711 42.9613 159.336 43.3363C158.961 43.7114 158.75 44.2201 158.75 44.7506C158.75 45.281 158.961 45.7897 159.336 46.1648C159.711 46.5398 160.22 46.7506 160.75 46.7506H175.5V47.2506Z"
		fill="#E6E6E6"
	/>
	<path
		d="M194.75 60.2506V59.7506C195.28 59.7506 195.789 59.5399 196.164 59.1648C196.539 58.7897 196.75 58.281 196.75 57.7506C196.75 57.2202 196.539 56.7114 196.164 56.3364C195.789 55.9613 195.28 55.7506 194.75 55.7506H180V55.2506H194.75C195.413 55.2506 196.049 55.514 196.518 55.9828C196.987 56.4517 197.25 57.0875 197.25 57.7506C197.25 58.4136 196.987 59.0495 196.518 59.5184C196.049 59.9872 195.413 60.2506 194.75 60.2506V60.2506Z"
		fill="#E6E6E6"
	/>
	<path
		d="M199.5 14.7505V14.2505C200.03 14.2505 200.539 14.0398 200.914 13.6647C201.289 13.2896 201.5 12.7809 201.5 12.2505C201.5 11.72 201.289 11.2113 200.914 10.8362C200.539 10.4612 200.03 10.2505 199.5 10.2505H184.75V9.75046H199.5C200.163 9.75046 200.799 10.0139 201.268 10.4827C201.737 10.9515 202 11.5874 202 12.2505C202 12.9135 201.737 13.5494 201.268 14.0182C200.799 14.4871 200.163 14.7505 199.5 14.7505Z"
		fill="#E6E6E6"
	/>
	<path
		d="M176.5 19.5005H161.75C161.087 19.5005 160.451 19.2371 159.982 18.7683C159.513 18.2994 159.25 17.6635 159.25 17.0005C159.25 16.3374 159.513 15.7016 159.982 15.2327C160.451 14.7639 161.087 14.5005 161.75 14.5005V15.0005C161.22 15.0005 160.711 15.2112 160.336 15.5863C159.961 15.9613 159.75 16.47 159.75 17.0005C159.75 17.5309 159.961 18.0396 160.336 18.4147C160.711 18.7898 161.22 19.0005 161.75 19.0005H176.5V19.5005Z"
		fill="#E6E6E6"
	/>
	<path
		d="M32.5 67.0006H17.75C17.087 67.0006 16.4511 66.7372 15.9822 66.2684C15.5134 65.7995 15.25 65.1637 15.25 64.5006C15.25 63.8376 15.5134 63.2017 15.9822 62.7328C16.4511 62.264 17.087 62.0006 17.75 62.0006V62.5006C17.2196 62.5006 16.7109 62.7113 16.3358 63.0864C15.9607 63.4615 15.75 63.9702 15.75 64.5006C15.75 65.0311 15.9607 65.5398 16.3358 65.9148C16.7109 66.2899 17.2196 66.5006 17.75 66.5006H32.5V67.0006Z"
		fill="#E6E6E6"
	/>
	<path
		d="M40.25 75.5007V75.0007C40.7804 75.0007 41.2891 74.7899 41.6642 74.4149C42.0393 74.0398 42.25 73.5311 42.25 73.0006C42.25 72.4702 42.0393 71.9615 41.6642 71.5864C41.2891 71.2114 40.7804 71.0006 40.25 71.0006H25.5V70.5006H40.25C40.913 70.5006 41.5489 70.764 42.0178 71.2329C42.4866 71.7017 42.75 72.3376 42.75 73.0006C42.75 73.6637 42.4866 74.2996 42.0178 74.7684C41.5489 75.2373 40.913 75.5007 40.25 75.5007V75.5007Z"
		fill="#E6E6E6"
	/>
	<path
		d="M17.25 80.2507H2.5C1.83696 80.2507 1.20107 79.9873 0.732231 79.5184C0.26339 79.0496 0 78.4137 0 77.7506C0 77.0876 0.26339 76.4517 0.732231 75.9829C1.20107 75.514 1.83696 75.2506 2.5 75.2506V75.7506C1.96957 75.7506 1.46086 75.9614 1.08578 76.3364C0.710712 76.7115 0.5 77.2202 0.5 77.7506C0.5 78.2811 0.710712 78.7898 1.08578 79.1649C1.46086 79.5399 1.96957 79.7507 2.5 79.7507H17.25V80.2507Z"
		fill="#E6E6E6"
	/>
	<path
		d="M33.5 39.2505H18.75C18.087 39.2505 17.4511 38.9872 16.9822 38.5183C16.5134 38.0495 16.25 37.4136 16.25 36.7505C16.25 36.0875 16.5134 35.4516 16.9822 34.9828C17.4511 34.5139 18.087 34.2505 18.75 34.2505V34.7505C18.2196 34.7505 17.7109 34.9612 17.3358 35.3363C16.9607 35.7114 16.75 36.2201 16.75 36.7505C16.75 37.281 16.9607 37.7897 17.3358 38.1648C17.7109 38.5398 18.2196 38.7505 18.75 38.7505H33.5V39.2505Z"
		fill="#E6E6E6"
	/>
	<path
		d="M41.25 47.7506V47.2506C41.7804 47.2506 42.2891 47.0398 42.6642 46.6648C43.0393 46.2897 43.25 45.781 43.25 45.2506C43.25 44.7201 43.0393 44.2114 42.6642 43.8363C42.2891 43.4613 41.7804 43.2505 41.25 43.2505H26.5V42.7505H41.25C41.913 42.7505 42.5489 43.0139 43.0178 43.4828C43.4866 43.9516 43.75 44.5875 43.75 45.2506C43.75 45.9136 43.4866 46.5495 43.0178 47.0183C42.5489 47.4872 41.913 47.7506 41.25 47.7506V47.7506Z"
		fill="#E6E6E6"
	/>
	<path
		d="M18.25 52.5006H3.5C2.83696 52.5006 2.20107 52.2372 1.73223 51.7683C1.26339 51.2995 1 50.6636 1 50.0006C1 49.3375 1.26339 48.7016 1.73223 48.2328C2.20107 47.764 2.83696 47.5006 3.5 47.5006V48.0006C2.96957 48.0006 2.46086 48.2113 2.08578 48.5864C1.71071 48.9614 1.5 49.4701 1.5 50.0006C1.5 50.531 1.71071 51.0397 2.08578 51.4148C2.46086 51.7899 2.96957 52.0006 3.5 52.0006H18.25V52.5006Z"
		fill="#E6E6E6"
	/>
	<path
		d="M139.75 116.251H125C124.337 116.251 123.701 115.987 123.232 115.519C122.763 115.05 122.5 114.414 122.5 113.751C122.5 113.088 122.763 112.452 123.232 111.983C123.701 111.514 124.337 111.251 125 111.251V111.751C124.47 111.751 123.961 111.961 123.586 112.337C123.211 112.712 123 113.22 123 113.751C123 114.281 123.211 114.79 123.586 115.165C123.961 115.54 124.47 115.751 125 115.751H139.75V116.251Z"
		fill="#E6E6E6"
	/>
	<path
		d="M156.25 129.751V129.251C156.78 129.251 157.289 129.04 157.664 128.665C158.039 128.29 158.25 127.781 158.25 127.251C158.25 126.72 158.039 126.212 157.664 125.837C157.289 125.461 156.78 125.251 156.25 125.251H141.5V124.751H156.25C156.913 124.751 157.549 125.014 158.018 125.483C158.487 125.952 158.75 126.588 158.75 127.251C158.75 127.914 158.487 128.55 158.018 129.019C157.549 129.487 156.913 129.751 156.25 129.751V129.751Z"
		fill="#E6E6E6"
	/>
	<path
		d="M126.25 132.251H111.5C110.837 132.251 110.201 131.987 109.732 131.519C109.263 131.05 109 130.414 109 129.751C109 129.088 109.263 128.452 109.732 127.983C110.201 127.514 110.837 127.251 111.5 127.251V127.751C110.97 127.751 110.461 127.962 110.086 128.337C109.711 128.712 109.5 129.22 109.5 129.751C109.5 130.281 109.711 130.79 110.086 131.165C110.461 131.54 110.97 131.751 111.5 131.751H126.25V132.251Z"
		fill="#E6E6E6"
	/>
	<path
		d="M72.75 131.001V130.501C73.2804 130.501 73.7891 130.29 74.1642 129.915C74.5393 129.54 74.75 129.031 74.75 128.501C74.75 127.97 74.5393 127.462 74.1642 127.087C73.7891 126.712 73.2804 126.501 72.75 126.501H58V126.001H72.75C73.413 126.001 74.0489 126.264 74.5178 126.733C74.9866 127.202 75.25 127.838 75.25 128.501C75.25 129.164 74.9866 129.8 74.5178 130.269C74.0489 130.737 73.413 131.001 72.75 131.001Z"
		fill="#E6E6E6"
	/>
	<path
		d="M28.25 137.251H13.5C12.837 137.251 12.2011 136.987 11.7322 136.519C11.2634 136.05 11 135.414 11 134.751C11 134.088 11.2634 133.452 11.7322 132.983C12.2011 132.514 12.837 132.251 13.5 132.251V132.751C12.9696 132.751 12.4609 132.962 12.0858 133.337C11.7107 133.712 11.5 134.22 11.5 134.751C11.5 135.281 11.7107 135.79 12.0858 136.165C12.4609 136.54 12.9696 136.751 13.5 136.751H28.25V137.251Z"
		fill="#E6E6E6"
	/>
	<path
		d="M127.721 151.751H32.4714C32.4051 151.751 32.3415 151.725 32.2947 151.678C32.2478 151.631 32.2214 151.567 32.2214 151.501C32.2214 151.435 32.2478 151.371 32.2947 151.324C32.3415 151.277 32.4051 151.251 32.4714 151.251H127.721C127.788 151.251 127.851 151.277 127.898 151.324C127.945 151.371 127.971 151.435 127.971 151.501C127.971 151.567 127.945 151.631 127.898 151.678C127.851 151.725 127.788 151.751 127.721 151.751Z"
		fill="#3F3D56"
	/>
	<path
		d="M46.6326 151.558C46.44 152.001 45.7951 151.618 45.985 151.181C46.8687 149.112 47.4715 146.934 47.7775 144.706C48.2981 140.883 48.0042 136.992 46.9151 133.291C46.875 133.158 46.835 133.023 46.7951 132.891C46.7 132.586 46.6 132.281 46.495 131.981C45.2977 128.489 43.364 125.295 40.825 122.616C40.4926 122.266 41.0225 121.736 41.355 122.086C42.964 123.77 44.3381 125.664 45.44 127.716C45.9665 128.693 46.4324 129.701 46.835 130.736C46.9926 131.138 47.14 131.546 47.28 131.953C48.0992 134.382 48.5878 136.909 48.7326 139.468C48.9774 143.606 48.2585 147.745 46.6326 151.558Z"
		fill="#3F3D56"
	/>
	<path
		d="M52.3576 113.351C51.5251 116.398 50.6934 119.446 49.8626 122.493C49 125.648 48.1392 128.802 47.28 131.953C47.1575 132.401 47.0358 132.847 46.915 133.291C46.875 133.158 46.835 133.023 46.7951 132.891C46.7 132.586 46.6 132.281 46.495 131.981C46.6075 131.566 46.72 131.151 46.835 130.736C46.99 130.168 47.145 129.601 47.3001 129.033C48.745 123.738 50.19 118.444 51.635 113.151C51.664 113.058 51.7281 112.98 51.8135 112.933C51.899 112.887 51.9993 112.875 52.0931 112.901C52.1869 112.927 52.2669 112.989 52.3163 113.072C52.3657 113.156 52.3805 113.256 52.3576 113.351V113.351Z"
		fill="#3F3D56"
	/>
	<path
		d="M36.9358 114.443C36.4987 115.402 36.0577 116.373 35.8685 117.41C35.6793 118.447 35.7655 119.573 36.3263 120.466C36.8033 121.148 37.4403 121.702 38.1816 122.081C39.2283 122.677 40.5893 123.099 41.5904 122.429C42.6014 121.751 42.7089 120.22 42.1424 119.143C41.576 118.066 40.5236 117.344 39.497 116.69C38.4703 116.036 37.6658 115.52 37 114.501L36.9358 114.443Z"
		fill="#38e190"
	/>
	<path
		d="M54.749 104.67C53.7475 104.999 52.7345 105.333 51.844 105.897C50.9534 106.461 50.1839 107.288 49.908 108.305C49.7299 109.118 49.7541 109.962 49.9784 110.764C50.2491 111.938 50.8617 113.224 52.0333 113.506C53.2167 113.79 54.415 112.831 54.8229 111.684C55.2309 110.538 55.0486 109.274 54.8332 108.076C54.6178 106.879 54.4523 105.937 54.75 104.757L54.749 104.67Z"
		fill="#38e190"
	/>
	<path
		d="M36.7789 126.313C37.0571 127.33 37.3401 128.359 37.8586 129.276C38.377 130.194 39.1641 131.004 40.1663 131.33C40.9693 131.549 41.8137 131.567 42.6253 131.383C43.8115 131.172 45.1271 130.624 45.4668 129.468C45.8099 128.301 44.9124 127.056 43.7877 126.591C42.663 126.126 41.392 126.245 40.1849 126.4C38.9778 126.555 38.0289 126.673 36.8652 126.317L36.7789 126.313Z"
		fill="#38e190"
	/>
	<path
		d="M39.7789 139.563C40.0571 140.58 40.3401 141.609 40.8586 142.526C41.377 143.444 42.1641 144.254 43.1663 144.58C43.9693 144.799 44.8137 144.817 45.6253 144.633C46.8115 144.422 48.1271 143.875 48.4668 142.718C48.8099 141.551 47.9124 140.306 46.7877 139.841C45.663 139.376 44.392 139.495 43.1849 139.65C41.9778 139.805 41.0289 139.923 39.8652 139.567L39.7789 139.563Z"
		fill="#38e190"
	/>
	<path
		d="M56.2211 130.813C55.9429 131.83 55.6599 132.859 55.1414 133.776C54.623 134.694 53.8359 135.504 52.8337 135.83C52.0307 136.049 51.1864 136.067 50.3747 135.883C49.1885 135.672 47.8729 135.125 47.5332 133.968C47.1901 132.801 48.0876 131.556 49.2123 131.091C50.337 130.626 51.608 130.745 52.8151 130.9C54.0222 131.055 54.9711 131.173 56.1348 130.817L56.2211 130.813Z"
		fill="#38e190"
	/>
	<path
		d="M59.2211 117.313C58.9429 118.33 58.6599 119.359 58.1414 120.276C57.623 121.194 56.8359 122.004 55.8337 122.33C55.0307 122.549 54.1864 122.567 53.3747 122.383C52.1885 122.172 50.8729 121.624 50.5332 120.468C50.1901 119.301 51.0876 118.056 52.2123 117.591C53.337 117.126 54.608 117.245 55.8151 117.4C57.0222 117.555 57.9711 117.673 59.1348 117.317L59.2211 117.313Z"
		fill="#38e190"
	/>
</svg>
